<svg width="120" height="49" viewBox="0 0 120 49" fill="none" xmlns="http://www.w3.org/2000/svg">
<rect y="4.44434" width="54.2223" height="40" fill="url(#paint0_linear_16_728)"/>
<rect width="65.7778" height="40" transform="matrix(-1 0 0 1 120 4.44434)" fill="url(#paint1_linear_16_728)"/>
<path d="M53.4268 0H71.8725V30.1505C71.8725 32.6823 71.3817 35.0549 70.3948 37.2785C69.4079 39.4971 68.0749 41.4332 66.3956 43.0816C64.7164 44.7301 62.7427 46.0191 60.4899 46.9487C58.232 47.8782 55.8553 48.3455 53.3545 48.3455C50.8072 48.3455 48.4047 47.8679 46.1467 46.9127C43.8888 45.9575 41.9203 44.6582 40.2359 43.0097C38.5515 41.3613 37.2236 39.42 36.2367 37.1707C35.255 34.9265 34.7642 32.4871 34.7642 29.8629H39.59C39.59 31.7733 39.9517 33.5656 40.6699 35.2346C41.3881 36.9088 42.3646 38.3519 43.5891 39.569C44.8137 40.7861 46.2656 41.7515 47.95 42.4705C49.6292 43.1844 51.4324 43.5438 53.3545 43.5438C55.2301 43.5438 56.992 43.1998 58.6505 42.5065C60.3091 41.8132 61.761 40.8734 63.0114 39.6768C64.2617 38.4854 65.2434 37.0628 65.9668 35.4144C66.685 33.7659 67.0467 32.0147 67.0467 30.1505V4.79655H53.4268V0Z" fill="#4D485E"/>
<path d="M49.8756 36.4443V16.8887C49.8756 13.4523 47.0898 10.6665 43.6534 10.6665V10.6665C40.2169 10.6665 37.4312 13.4523 37.4312 16.8887V29.8906" stroke="#4D485E" stroke-width="5"/>
<defs>
<linearGradient id="paint0_linear_16_728" x1="63.7909" y1="-2.22234" x2="46.7804" y2="28.2964" gradientUnits="userSpaceOnUse">
<stop offset="0.123076" stop-color="#37A9C0"/>
<stop offset="1" stop-color="#37A9C0" stop-opacity="0"/>
</linearGradient>
<linearGradient id="paint1_linear_16_728" x1="77.3857" y1="-6.66667" x2="62.2108" y2="26.3611" gradientUnits="userSpaceOnUse">
<stop offset="0.123076" stop-color="#37A9C0"/>
<stop offset="1" stop-color="#37A9C0" stop-opacity="0"/>
</linearGradient>
</defs>
</svg>
