<svg width="40" height="40" viewBox="0 0 40 40" fill="none" xmlns="http://www.w3.org/2000/svg">
<rect width="40" height="40" rx="20" fill="white"/>
<path d="M30 14.37V14.8991C29.8383 15.4069 29.4775 15.7269 29.0121 15.9473C28.8243 16.0372 28.6349 16.1221 28.439 16.1906C27.0429 16.6805 25.6452 17.1606 24.2507 17.6553C23.9813 17.7516 23.7266 17.8904 23.4719 18.0227C23.2825 18.1223 23.1714 18.2937 23.1698 18.5093C23.1649 18.8995 23.1453 19.2947 23.1861 19.6817C23.4229 21.953 23.8817 24.1883 24.2981 26.4302C24.561 27.8475 24.832 29.2616 25.09 30.6789C25.2272 31.4382 24.8369 32.0407 24.094 32.2513C24.0254 32.2693 23.9601 32.2954 23.8931 32.3167H23.2678C22.5232 32.1158 22.1966 31.5639 22.0529 30.8618C21.9745 30.4781 21.9109 30.0894 21.8243 29.7074C21.4259 27.9765 21.0308 26.2457 20.6128 24.5198C20.5213 24.1426 20.358 23.7785 20.1915 23.4258C20.0511 23.127 19.9123 23.1384 19.7473 23.4307C19.6918 23.527 19.6412 23.6283 19.6053 23.7344C19.4747 24.1198 19.3195 24.5018 19.2297 24.8986C18.8019 26.8189 18.3855 28.7423 17.979 30.6691C17.8189 31.4251 17.5626 32.0848 16.7266 32.3167H16.1012C15.9738 32.2742 15.8448 32.2383 15.7191 32.1893C15.1019 31.9476 14.7721 31.3843 14.8896 30.7344C15.3615 28.1088 15.8612 25.4897 16.3086 22.8608C16.529 21.5676 16.6955 20.2613 16.8131 18.9551C16.898 18.0113 16.7004 17.8055 15.7958 17.523C14.4292 17.0952 13.0559 16.6854 11.6974 16.2347C11.2925 16.1008 10.8891 15.9082 10.543 15.6616C9.71349 15.0689 9.86698 13.6369 10.7814 13.1764C11.0639 13.036 11.3529 13.049 11.6468 13.1372C13.6421 13.7397 15.6701 14.1871 17.7357 14.4843C19.4257 14.726 21.1059 14.6705 22.7844 14.4043C24.6296 14.1137 26.4437 13.6891 28.2382 13.1715C29.0513 12.938 29.6277 13.2433 29.9004 14.0532C29.9347 14.1577 29.9673 14.2639 30 14.37Z" fill="#2A303B"/>
<path d="M22.6898 10.3762C22.6898 11.8588 21.4799 13.0704 19.9989 13.0704C18.5179 13.072 17.3063 11.8604 17.3047 10.3778C17.3047 8.89517 18.5146 7.68359 19.9973 7.68359C21.4799 7.68359 22.6898 8.8919 22.6898 10.3762Z" fill="#2A303B"/>
</svg>
